<svg width="24" height="21" viewBox="0 0 24 21" fill="none" xmlns="http://www.w3.org/2000/svg">
<path d="M3.29497 13.4647C3.68557 13.7993 4.31869 13.7992 4.70915 13.4644C5.09961 13.1296 5.09952 12.587 4.70892 12.2523L2.4143 10.2862L5.88302 7.31297C7.97678 5.51832 10.9491 4.78709 13.7936 5.3008C14.334 5.39839 14.8643 5.102 14.9782 4.63879C15.0921 4.17558 14.7463 3.72097 14.2059 3.62338C10.7067 2.99147 7.04563 3.89209 4.46878 6.10081L0.29288 9.68016C-0.0976735 10.0149 -0.0976266 10.5577 0.293021 10.8924L3.29497 13.4647Z" fill="#B8B8B8"/>
<path d="M23.7069 9.68068L20.7049 7.10847C20.3143 6.77379 19.6812 6.77387 19.2907 7.10867C18.9003 7.44347 18.9004 7.98615 19.291 8.32083L21.5856 10.287L18.1169 13.2601C16.0231 15.0548 13.0508 15.786 10.2063 15.2723C9.66592 15.1747 9.13554 15.4711 9.02168 15.9343C8.90783 16.3975 9.25362 16.8522 9.79403 16.9497C13.2932 17.5817 16.9543 16.681 19.5311 14.4723L23.707 10.893C24.0976 10.5582 24.0975 10.0154 23.7069 9.68068Z" fill="#B8B8B8"/>
<path d="M7.00366 10.2856C7.00366 10.759 7.45136 11.1427 8.00362 11.1427C8.55589 11.1427 9.00358 10.759 9.00358 10.2856C9.00358 8.86559 10.3469 7.71422 12.0035 7.71422C12.5558 7.71422 13.0035 7.33048 13.0035 6.85711C13.0035 6.38374 12.5558 6 12.0035 6C9.24231 5.99996 7.00366 7.9188 7.00366 10.2856Z" fill="#B8B8B8"/>
<path d="M14.9967 10.2887C14.9967 11.7087 13.6535 12.8601 11.9968 12.8601C11.4445 12.8601 10.9968 13.2438 10.9968 13.7172C10.9968 14.1906 11.4445 14.5743 11.9968 14.5743C14.758 14.5743 16.9967 12.6554 16.9967 10.2887C16.9967 9.81529 16.549 9.43155 15.9967 9.43155C15.4444 9.43155 14.9967 9.81533 14.9967 10.2887Z" fill="#B8B8B8"/>
<path d="M23.7065 0.25104C23.316 -0.08368 22.6829 -0.08368 22.2924 0.25104L0.29288 19.1077C-0.0976267 19.4425 -0.0976267 19.9852 0.29288 20.3199C0.683387 20.6546 1.31656 20.6546 1.70707 20.3199L23.7065 1.4632C24.0971 1.12848 24.0971 0.58576 23.7065 0.25104Z" fill="#B8B8B8"/>
</svg>
