<svg width="130" height="47" viewBox="0 0 130 47" fill="none" xmlns="http://www.w3.org/2000/svg">
<path d="M19.0399 39.317V32.8189H16.2988C15.4599 32.8189 14.8608 32.6546 14.5013 32.3259C14.1418 31.9973 13.962 31.4595 13.962 30.7126V8.2155H6.27784V14.6037H0V21.5543H6.27784V30.6229C6.27784 33.7002 7.05674 35.926 8.61455 37.3004C10.1724 38.6448 12.3443 39.317 15.1304 39.317H19.0399Z" fill="#0039A7"/>
<path d="M7.61596 0H21.9691V6.74845H7.61596V0Z" fill="#FEA702"/>
<path d="M15.2319 6.74845H21.9691V13.7903H15.2319V6.74845Z" fill="#FEA702"/>
<path d="M41.9737 15.8495V36.9698H35.5121V34.0932C34.8572 35.0268 33.9629 35.7838 32.8293 36.3642C31.7209 36.9193 30.4865 37.1969 29.1262 37.1969C27.5139 37.1969 26.0906 36.8436 24.8562 36.1371C23.6219 35.4053 22.6646 34.3581 21.9844 32.9955C21.3043 31.6329 20.9642 30.0306 20.9642 28.1886V15.8495H27.388V27.318C27.388 28.7311 27.7532 29.8287 28.4838 30.611C29.2143 31.3932 30.1968 31.7843 31.4312 31.7843C32.6907 31.7843 33.6858 31.3932 34.4163 30.611C35.1469 29.8287 35.5121 28.7311 35.5121 27.318V15.8495H41.9737Z" fill="#0039A7"/>
<path d="M52.1319 19.3695C52.8876 18.2088 53.8323 17.3004 54.9659 16.6443C56.0995 15.963 57.3591 15.6224 58.7446 15.6224V22.4732H56.9686C55.3563 22.4732 54.1472 22.8265 53.341 23.533C52.5349 24.2143 52.1319 25.4255 52.1319 27.1666V36.9698H45.6703V15.8495H52.1319V19.3695Z" fill="#0039A7"/>
<path d="M67.3499 18.8396C67.9545 17.8555 68.8236 17.0607 69.9572 16.4551C71.0908 15.8495 72.3882 15.5467 73.8493 15.5467C75.5875 15.5467 77.1619 15.9882 78.5726 16.8714C79.9834 17.7546 81.0918 19.0162 81.8979 20.6564C82.7292 22.2966 83.1449 24.2017 83.1449 26.3718C83.1449 28.5418 82.7292 30.4596 81.8979 32.125C81.0918 33.7651 79.9834 35.0394 78.5726 35.9478C77.1619 36.831 75.5875 37.2726 73.8493 37.2726C72.363 37.2726 71.0657 36.9824 69.9572 36.402C68.8488 35.7964 67.9797 35.0016 67.3499 34.0175V36.9698H60.8884V8.96076H67.3499V18.8396ZM76.5699 26.3718C76.5699 24.7568 76.1165 23.4952 75.2096 22.5868C74.3279 21.6531 73.2321 21.1863 71.9222 21.1863C70.6374 21.1863 69.5416 21.6531 68.6347 22.5868C67.753 23.5204 67.3122 24.7947 67.3122 26.4096C67.3122 28.0245 67.753 29.2988 68.6347 30.2325C69.5416 31.1661 70.6374 31.6329 71.9222 31.6329C73.2069 31.6329 74.3027 31.1661 75.2096 30.2325C76.1165 29.2736 76.5699 27.9867 76.5699 26.3718Z" fill="#0039A7"/>
<path d="M88.8397 13.6542C87.7061 13.6542 86.7741 13.3261 86.0435 12.6701C85.3382 11.9888 84.9855 11.1561 84.9855 10.172C84.9855 9.16263 85.3382 8.32993 86.0435 7.67386C86.7741 6.99256 87.7061 6.65191 88.8397 6.65191C89.9482 6.65191 90.855 6.99256 91.5604 7.67386C92.2909 8.32993 92.6562 9.16263 92.6562 10.172C92.6562 11.1561 92.2909 11.9888 91.5604 12.6701C90.855 13.3261 89.9482 13.6542 88.8397 13.6542ZM92.0516 15.8495V36.9698H85.5901V15.8495H92.0516Z" fill="#0039A7"/>
<path d="M106.37 21.2242H102.894V36.9698H96.432V21.2242H94.0892V15.8495H96.432V15.2439C96.432 12.6448 97.1751 10.6766 98.6614 9.33926C100.148 7.97666 102.327 7.29536 105.199 7.29536C105.677 7.29536 106.03 7.30798 106.257 7.33321V12.8215C105.022 12.7458 104.153 12.9224 103.649 13.3514C103.145 13.7803 102.894 14.5499 102.894 15.6602V15.8495H106.37V21.2242Z" fill="#0039A7"/>
<path d="M130 15.8495L116.775 47H109.822L114.659 36.2506L106.081 15.8495H113.298L118.173 29.0591L123.009 15.8495H130Z" fill="#0039A7"/>
</svg>
